<svg width="32" height="32" viewBox="0 0 24 24" fill="none" xmlns="http://www.w3.org/2000/svg">
  <circle cx="12" cy="12" r="12" fill="#1DA1F2"/>
  <path d="M18.244 7.52c-.66.29-1.37.49-2.11.58.76-.45 1.34-1.17 1.61-2.03-.71.42-1.5.73-2.33.89-.67-.71-1.62-1.16-2.68-1.16-2.03 0-3.67 1.64-3.67 3.67 0 .29.03.57.1.84-3.05-.15-5.75-1.61-7.56-3.83-.32.54-.5 1.17-.5 1.85 0 1.27.65 2.39 1.63 3.05-.6-.02-1.17-.18-1.67-.46v.05c0 1.78 1.26 3.26 2.94 3.6-.31.08-.63.13-.97.13-.24 0-.47-.02-.7-.07.47 1.47 1.84 2.54 3.46 2.57-1.27.99-2.87 1.58-4.61 1.58-.3 0-.59-.02-.88-.05 1.62 1.04 3.55 1.65 5.62 1.65 6.75 0 10.44-5.59 10.44-10.44 0-.16 0-.31-.01-.47.72-.52 1.34-1.16 1.83-1.9z" fill="white"/>
</svg> 